<svg width="142" height="51" viewBox="0 0 142 51" fill="none" xmlns="http://www.w3.org/2000/svg">
<path d="M50.8849 31V20.8182H53.0376V29.2251H57.4027V31H50.8849ZM62.2388 31.1491C61.4666 31.1491 60.7987 30.9851 60.2353 30.657C59.6751 30.3255 59.2426 29.8648 58.9377 29.2749C58.6328 28.6816 58.4803 27.9938 58.4803 27.2116C58.4803 26.4228 58.6328 25.7334 58.9377 25.1435C59.2426 24.5502 59.6751 24.0895 60.2353 23.7614C60.7987 23.4299 61.4666 23.2642 62.2388 23.2642C63.0111 23.2642 63.6773 23.4299 64.2374 23.7614C64.8008 24.0895 65.235 24.5502 65.54 25.1435C65.8449 25.7334 65.9973 26.4228 65.9973 27.2116C65.9973 27.9938 65.8449 28.6816 65.54 29.2749C65.235 29.8648 64.8008 30.3255 64.2374 30.657C63.6773 30.9851 63.0111 31.1491 62.2388 31.1491ZM62.2488 29.5085C62.6001 29.5085 62.8934 29.4091 63.1287 29.2102C63.3641 29.008 63.5414 28.733 63.6607 28.3849C63.7833 28.0369 63.8446 27.6409 63.8446 27.1967C63.8446 26.7526 63.7833 26.3565 63.6607 26.0085C63.5414 25.6605 63.3641 25.3854 63.1287 25.1832C62.8934 24.9811 62.6001 24.88 62.2488 24.88C61.8941 24.88 61.5958 24.9811 61.3539 25.1832C61.1152 25.3854 60.9346 25.6605 60.812 26.0085C60.6926 26.3565 60.633 26.7526 60.633 27.1967C60.633 27.6409 60.6926 28.0369 60.812 28.3849C60.9346 28.733 61.1152 29.008 61.3539 29.2102C61.5958 29.4091 61.8941 29.5085 62.2488 29.5085ZM70.8148 34.0227C70.1287 34.0227 69.5404 33.9283 69.0499 33.7393C68.5627 33.5537 68.1749 33.3002 67.8865 32.9787C67.5982 32.6572 67.4109 32.2959 67.3248 31.8949L69.2836 31.6314C69.3432 31.7839 69.4377 31.9264 69.5669 32.0589C69.6962 32.1915 69.8669 32.2976 70.079 32.3771C70.2944 32.46 70.5563 32.5014 70.8645 32.5014C71.3252 32.5014 71.7047 32.3887 72.003 32.1634C72.3046 31.9413 72.4554 31.5684 72.4554 31.0447V29.6477H72.3659C72.2731 29.8598 72.1339 30.0604 71.9483 30.2493C71.7627 30.4382 71.5241 30.5923 71.2324 30.7116C70.9408 30.831 70.5927 30.8906 70.1884 30.8906C69.615 30.8906 69.093 30.758 68.6223 30.4929C68.155 30.2244 67.7821 29.8151 67.5037 29.2649C67.2286 28.7114 67.0911 28.0121 67.0911 27.1669C67.0911 26.3018 67.2319 25.5793 67.5137 24.9993C67.7954 24.4193 68.1699 23.9851 68.6373 23.6967C69.1079 23.4084 69.6233 23.2642 70.1834 23.2642C70.611 23.2642 70.9689 23.3371 71.2573 23.483C71.5456 23.6255 71.7776 23.8045 71.9533 24.0199C72.1323 24.232 72.2698 24.4408 72.3659 24.6463H72.4455V23.3636H74.5485V31.0746C74.5485 31.7242 74.3894 32.2678 74.0712 32.7053C73.753 33.1428 73.3122 33.4709 72.7488 33.6896C72.1886 33.9117 71.544 34.0227 70.8148 34.0227ZM70.8596 29.2997C71.2009 29.2997 71.4893 29.2152 71.7246 29.0462C71.9632 28.8738 72.1455 28.6286 72.2715 28.3104C72.4007 27.9889 72.4654 27.6044 72.4654 27.157C72.4654 26.7095 72.4024 26.3217 72.2765 25.9936C72.1505 25.6622 71.9682 25.4053 71.7296 25.223C71.4909 25.0407 71.2009 24.9496 70.8596 24.9496C70.5115 24.9496 70.2182 25.044 69.9796 25.233C69.7409 25.4186 69.5603 25.6771 69.4377 26.0085C69.315 26.34 69.2537 26.7228 69.2537 27.157C69.2537 27.5978 69.315 27.9789 69.4377 28.3004C69.5636 28.6186 69.7443 28.8655 69.9796 29.0412C70.2182 29.2135 70.5115 29.2997 70.8596 29.2997ZM79.4741 31V23.3636H81.592V31H79.4741ZM80.538 22.3793C80.2231 22.3793 79.953 22.2749 79.7276 22.0661C79.5056 21.8539 79.3945 21.6004 79.3945 21.3054C79.3945 21.0137 79.5056 20.7635 79.7276 20.5547C79.953 20.3426 80.2231 20.2365 80.538 20.2365C80.8529 20.2365 81.1213 20.3426 81.3434 20.5547C81.5688 20.7635 81.6815 21.0137 81.6815 21.3054C81.6815 21.6004 81.5688 21.8539 81.3434 22.0661C81.1213 22.2749 80.8529 22.3793 80.538 22.3793ZM85.4064 26.5852V31H83.2885V23.3636H85.307V24.7109H85.3965C85.5655 24.2668 85.8489 23.9155 86.2466 23.657C86.6444 23.3951 87.1266 23.2642 87.6934 23.2642C88.2237 23.2642 88.686 23.3802 89.0804 23.6122C89.4748 23.8442 89.7814 24.1757 90.0002 24.6065C90.2189 25.0341 90.3283 25.5445 90.3283 26.1378V31H88.2104V26.5156C88.2137 26.0483 88.0944 25.6837 87.8525 25.4219C87.6105 25.1567 87.2774 25.0241 86.8532 25.0241C86.5681 25.0241 86.3162 25.0855 86.0975 25.2081C85.882 25.3307 85.713 25.5097 85.5904 25.745C85.4711 25.977 85.4097 26.2571 85.4064 26.5852Z" fill="#FF994F"/>
<rect x="1" y="1" width="140" height="49" rx="24" stroke="#FF994F" stroke-width="1.5"/>
</svg>
