<svg width="156" height="49" viewBox="0 0 156 49" fill="none" xmlns="http://www.w3.org/2000/svg">
<rect width="156" height="49" rx="24" fill="#FF994F"/>
<path d="M32.8849 30V19.8182H36.902C37.6709 19.8182 38.3272 19.9557 38.8707 20.2308C39.4176 20.5026 39.8336 20.8887 40.1186 21.3892C40.407 21.8864 40.5511 22.4714 40.5511 23.1442C40.5511 23.8203 40.4053 24.402 40.1136 24.8892C39.822 25.3731 39.3994 25.7443 38.8459 26.0028C38.2957 26.2614 37.6295 26.3906 36.8473 26.3906H34.1577V24.6605H36.4993C36.9103 24.6605 37.2517 24.6042 37.5234 24.4915C37.7952 24.3788 37.9974 24.2098 38.13 23.9844C38.2659 23.759 38.3338 23.4789 38.3338 23.1442C38.3338 22.8061 38.2659 22.5211 38.13 22.2891C37.9974 22.0571 37.7936 21.8814 37.5185 21.7621C37.2467 21.6394 36.9036 21.5781 36.4893 21.5781H35.0376V30H32.8849ZM38.3835 25.3665L40.9141 30H38.5376L36.0618 25.3665H38.3835ZM45.3897 30.1491C44.6042 30.1491 43.9281 29.9901 43.3613 29.6719C42.7979 29.3504 42.3637 28.8963 42.0588 28.3097C41.7538 27.7197 41.6014 27.022 41.6014 26.2166C41.6014 25.4311 41.7538 24.7417 42.0588 24.1484C42.3637 23.5552 42.7929 23.0928 43.3464 22.7614C43.9032 22.4299 44.5562 22.2642 45.3052 22.2642C45.809 22.2642 46.278 22.3454 46.7122 22.5078C47.1497 22.6669 47.5308 22.9072 47.8556 23.2287C48.1838 23.5502 48.439 23.9545 48.6213 24.4418C48.8036 24.9257 48.8947 25.4924 48.8947 26.142V26.7237H42.4466V25.4112H46.9011C46.9011 25.1063 46.8348 24.8362 46.7022 24.6009C46.5697 24.3655 46.3857 24.1816 46.1504 24.049C45.9184 23.9131 45.6483 23.8452 45.34 23.8452C45.0185 23.8452 44.7335 23.9197 44.4849 24.0689C44.2396 24.2147 44.0474 24.4119 43.9082 24.6605C43.769 24.9058 43.6977 25.1792 43.6944 25.4808V26.7287C43.6944 27.1065 43.764 27.433 43.9032 27.7081C44.0458 27.9832 44.2463 28.1953 44.5048 28.3445C44.7633 28.4936 45.0699 28.5682 45.4245 28.5682C45.6599 28.5682 45.8753 28.535 46.0708 28.4688C46.2664 28.4025 46.4338 28.303 46.573 28.1705C46.7122 28.0379 46.8182 27.8755 46.8912 27.6832L48.85 27.8125C48.7505 28.2831 48.5467 28.6941 48.2385 29.0455C47.9335 29.3935 47.5391 29.6652 47.0552 29.8608C46.5746 30.053 46.0195 30.1491 45.3897 30.1491ZM53.7172 33.0227C53.0311 33.0227 52.4428 32.9283 51.9522 32.7393C51.465 32.5537 51.0772 32.3002 50.7889 31.9787C50.5005 31.6572 50.3133 31.2959 50.2271 30.8949L52.1859 30.6314C52.2456 30.7839 52.34 30.9264 52.4693 31.0589C52.5985 31.1915 52.7692 31.2976 52.9814 31.3771C53.1968 31.46 53.4586 31.5014 53.7669 31.5014C54.2276 31.5014 54.6071 31.3887 54.9054 31.1634C55.207 30.9413 55.3578 30.5684 55.3578 30.0447V28.6477H55.2683C55.1755 28.8598 55.0363 29.0604 54.8507 29.2493C54.6651 29.4382 54.4264 29.5923 54.1348 29.7116C53.8431 29.831 53.4951 29.8906 53.0907 29.8906C52.5173 29.8906 51.9953 29.758 51.5247 29.4929C51.0574 29.2244 50.6845 28.8151 50.4061 28.2649C50.131 27.7114 49.9934 27.0121 49.9934 26.1669C49.9934 25.3018 50.1343 24.5793 50.416 23.9993C50.6977 23.4193 51.0723 22.9851 51.5396 22.6967C52.0102 22.4084 52.5256 22.2642 53.0858 22.2642C53.5133 22.2642 53.8713 22.3371 54.1596 22.483C54.448 22.6255 54.68 22.8045 54.8556 23.0199C55.0346 23.232 55.1722 23.4408 55.2683 23.6463H55.3478V22.3636H57.4508V30.0746C57.4508 30.7242 57.2917 31.2678 56.9735 31.7053C56.6554 32.1428 56.2145 32.4709 55.6511 32.6896C55.091 32.9117 54.4463 33.0227 53.7172 33.0227ZM53.7619 28.2997C54.1033 28.2997 54.3916 28.2152 54.627 28.0462C54.8656 27.8738 55.0479 27.6286 55.1738 27.3104C55.3031 26.9889 55.3677 26.6044 55.3677 26.157C55.3677 25.7095 55.3047 25.3217 55.1788 24.9936C55.0529 24.6622 54.8706 24.4053 54.6319 24.223C54.3933 24.0407 54.1033 23.9496 53.7619 23.9496C53.4139 23.9496 53.1206 24.044 52.8819 24.233C52.6433 24.4186 52.4627 24.6771 52.34 25.0085C52.2174 25.34 52.1561 25.7228 52.1561 26.157C52.1561 26.5978 52.2174 26.9789 52.34 27.3004C52.466 27.6186 52.6466 27.8655 52.8819 28.0412C53.1206 28.2135 53.4139 28.2997 53.7619 28.2997ZM59.1362 30V22.3636H61.2541V30H59.1362ZM60.2001 21.3793C59.8852 21.3793 59.6151 21.2749 59.3897 21.0661C59.1677 20.8539 59.0566 20.6004 59.0566 20.3054C59.0566 20.0137 59.1677 19.7635 59.3897 19.5547C59.6151 19.3426 59.8852 19.2365 60.2001 19.2365C60.515 19.2365 60.7834 19.3426 61.0055 19.5547C61.2309 19.7635 61.3436 20.0137 61.3436 20.3054C61.3436 20.6004 61.2309 20.8539 61.0055 21.0661C60.7834 21.2749 60.515 21.3793 60.2001 21.3793ZM69.3043 24.5412L67.3654 24.6605C67.3323 24.4948 67.261 24.3456 67.1516 24.2131C67.0423 24.0772 66.8981 23.9695 66.7191 23.8899C66.5434 23.8071 66.333 23.7656 66.0877 23.7656C65.7596 23.7656 65.4828 23.8352 65.2575 23.9744C65.0321 24.1103 64.9194 24.2926 64.9194 24.5213C64.9194 24.7036 64.9923 24.8577 65.1381 24.9837C65.284 25.1096 65.5342 25.2107 65.8888 25.2869L67.271 25.5653C68.0134 25.7178 68.5669 25.9631 68.9315 26.3011C69.296 26.6392 69.4783 27.0833 69.4783 27.6335C69.4783 28.134 69.3308 28.5732 69.0359 28.951C68.7442 29.3288 68.3432 29.6238 67.8327 29.8359C67.3256 30.0447 66.7406 30.1491 66.0778 30.1491C65.0669 30.1491 64.2615 29.9387 63.6616 29.5178C63.065 29.0935 62.7153 28.5168 62.6126 27.7876L64.6957 27.6783C64.7586 27.9865 64.9111 28.2218 65.1531 28.3842C65.395 28.5433 65.7049 28.6229 66.0827 28.6229C66.454 28.6229 66.7522 28.5516 66.9776 28.4091C67.2063 28.2633 67.3223 28.076 67.3256 27.8473C67.3223 27.6551 67.2411 27.4976 67.082 27.375C66.9229 27.2491 66.6777 27.1529 66.3462 27.0866L65.0238 26.8232C64.2781 26.674 63.7229 26.4155 63.3583 26.0476C62.997 25.6797 62.8164 25.2107 62.8164 24.6406C62.8164 24.1501 62.949 23.7275 63.2141 23.3729C63.4826 23.0182 63.8588 22.7448 64.3427 22.5526C64.8299 22.3603 65.4 22.2642 66.0529 22.2642C67.0174 22.2642 67.7764 22.468 68.3299 22.8757C68.8867 23.2834 69.2115 23.8385 69.3043 24.5412ZM74.8738 22.3636V23.9545H70.275V22.3636H74.8738ZM71.3191 20.5341H73.437V27.6534C73.437 27.849 73.4668 28.0014 73.5265 28.1108C73.5861 28.2169 73.669 28.2914 73.775 28.3345C73.8844 28.3776 74.0104 28.3991 74.1529 28.3991C74.2523 28.3991 74.3517 28.3909 74.4512 28.3743C74.5506 28.3544 74.6268 28.3395 74.6799 28.3295L75.013 29.9055C74.9069 29.9387 74.7578 29.9768 74.5655 30.0199C74.3733 30.0663 74.1396 30.0945 73.8645 30.1044C73.3541 30.1243 72.9067 30.0563 72.5222 29.9006C72.141 29.7448 71.8444 29.5028 71.6323 29.1747C71.4202 28.8466 71.3158 28.4323 71.3191 27.9318V20.5341ZM79.6515 30.1491C78.8659 30.1491 78.1898 29.9901 77.623 29.6719C77.0596 29.3504 76.6254 28.8963 76.3205 28.3097C76.0156 27.7197 75.8631 27.022 75.8631 26.2166C75.8631 25.4311 76.0156 24.7417 76.3205 24.1484C76.6254 23.5552 77.0546 23.0928 77.6081 22.7614C78.165 22.4299 78.8179 22.2642 79.5669 22.2642C80.0707 22.2642 80.5397 22.3454 80.9739 22.5078C81.4114 22.6669 81.7926 22.9072 82.1174 23.2287C82.4455 23.5502 82.7007 23.9545 82.883 24.4418C83.0653 24.9257 83.1564 25.4924 83.1564 26.142V26.7237H76.7083V25.4112H81.1628C81.1628 25.1063 81.0965 24.8362 80.964 24.6009C80.8314 24.3655 80.6474 24.1816 80.4121 24.049C80.1801 23.9131 79.91 23.8452 79.6017 23.8452C79.2802 23.8452 78.9952 23.9197 78.7466 24.0689C78.5014 24.2147 78.3091 24.4119 78.1699 24.6605C78.0307 24.9058 77.9595 25.1792 77.9561 25.4808V26.7287C77.9561 27.1065 78.0257 27.433 78.165 27.7081C78.3075 27.9832 78.508 28.1953 78.7665 28.3445C79.025 28.4936 79.3316 28.5682 79.6863 28.5682C79.9216 28.5682 80.137 28.535 80.3326 28.4688C80.5281 28.4025 80.6955 28.303 80.8347 28.1705C80.9739 28.0379 81.08 27.8755 81.1529 27.6832L83.1117 27.8125C83.0123 28.2831 82.8084 28.6941 82.5002 29.0455C82.1953 29.3935 81.8008 29.6652 81.3169 29.8608C80.8364 30.053 80.2812 30.1491 79.6515 30.1491ZM84.5385 30V22.3636H86.5918V23.696H86.6713C86.8105 23.2221 87.0442 22.8641 87.3723 22.6222C87.7005 22.3769 88.0783 22.2543 88.5059 22.2543C88.6119 22.2543 88.7263 22.2609 88.8489 22.2741C88.9715 22.2874 89.0792 22.3056 89.1721 22.3288V24.2081C89.0726 24.1783 88.9351 24.1518 88.7594 24.1286C88.5837 24.1054 88.423 24.0938 88.2772 24.0938C87.9656 24.0938 87.6872 24.1617 87.4419 24.2976C87.2 24.4302 87.0078 24.6158 86.8652 24.8544C86.726 25.093 86.6564 25.3681 86.6564 25.6797V30H84.5385ZM92.2259 30.1442C91.7386 30.1442 91.3045 30.0597 90.9233 29.8906C90.5421 29.7183 90.2405 29.4647 90.0185 29.13C89.7997 28.7919 89.6903 28.371 89.6903 27.8672C89.6903 27.4429 89.7682 27.0866 89.924 26.7983C90.0798 26.5099 90.2919 26.2779 90.5604 26.1023C90.8288 25.9266 91.1338 25.794 91.4751 25.7045C91.8198 25.6151 92.1811 25.5521 92.5589 25.5156C93.0031 25.4692 93.361 25.4261 93.6328 25.3864C93.9046 25.3433 94.1018 25.2803 94.2244 25.1974C94.3471 25.1146 94.4084 24.992 94.4084 24.8295V24.7997C94.4084 24.4848 94.3089 24.2412 94.1101 24.0689C93.9145 23.8965 93.6361 23.8104 93.2749 23.8104C92.8937 23.8104 92.5904 23.8949 92.3651 24.0639C92.1397 24.2296 91.9905 24.4384 91.9176 24.6903L89.9588 24.5312C90.0582 24.0672 90.2538 23.6662 90.5455 23.3281C90.8371 22.9867 91.2133 22.7249 91.674 22.5426C92.138 22.357 92.675 22.2642 93.2848 22.2642C93.709 22.2642 94.1151 22.3139 94.5028 22.4134C94.8939 22.5128 95.2403 22.6669 95.5419 22.8757C95.8468 23.0845 96.0871 23.353 96.2628 23.6811C96.4384 24.0059 96.5263 24.3954 96.5263 24.8494V30H94.5178V28.9411H94.4581C94.3355 29.1797 94.1714 29.3902 93.9659 29.5724C93.7604 29.7514 93.5135 29.8923 93.2251 29.995C92.9368 30.0945 92.6037 30.1442 92.2259 30.1442ZM92.8324 28.6825C93.1439 28.6825 93.419 28.6212 93.6577 28.4986C93.8963 28.3726 94.0836 28.2036 94.2195 27.9915C94.3554 27.7794 94.4233 27.5391 94.4233 27.2706V26.4602C94.357 26.5033 94.2659 26.5431 94.1499 26.5795C94.0372 26.6127 93.9096 26.6442 93.767 26.674C93.6245 26.7005 93.482 26.7254 93.3395 26.7486C93.197 26.7685 93.0677 26.7867 92.9517 26.8033C92.7031 26.8397 92.486 26.8977 92.3004 26.9773C92.1148 27.0568 91.9706 27.1645 91.8679 27.3004C91.7652 27.433 91.7138 27.5987 91.7138 27.7976C91.7138 28.0859 91.8182 28.3063 92.027 28.4588C92.2391 28.608 92.5076 28.6825 92.8324 28.6825ZM102.231 22.3636V23.9545H97.6325V22.3636H102.231ZM98.6765 20.5341H100.794V27.6534C100.794 27.849 100.824 28.0014 100.884 28.1108C100.944 28.2169 101.026 28.2914 101.132 28.3345C101.242 28.3776 101.368 28.3991 101.51 28.3991C101.61 28.3991 101.709 28.3909 101.809 28.3743C101.908 28.3544 101.984 28.3395 102.037 28.3295L102.37 29.9055C102.264 29.9387 102.115 29.9768 101.923 30.0199C101.731 30.0663 101.497 30.0945 101.222 30.1044C100.712 30.1243 100.264 30.0563 99.8796 29.9006C99.4985 29.7448 99.2018 29.5028 98.9897 29.1747C98.7776 28.8466 98.6732 28.4323 98.6765 27.9318V20.5341ZM103.611 30V22.3636H105.729V30H103.611ZM104.675 21.3793C104.36 21.3793 104.09 21.2749 103.864 21.0661C103.642 20.8539 103.531 20.6004 103.531 20.3054C103.531 20.0137 103.642 19.7635 103.864 19.5547C104.09 19.3426 104.36 19.2365 104.675 19.2365C104.99 19.2365 105.258 19.3426 105.48 19.5547C105.705 19.7635 105.818 20.0137 105.818 20.3054C105.818 20.6004 105.705 20.8539 105.48 21.0661C105.258 21.2749 104.99 21.3793 104.675 21.3793ZM110.876 30.1491C110.103 30.1491 109.435 29.9851 108.872 29.657C108.312 29.3255 107.879 28.8648 107.574 28.2749C107.269 27.6816 107.117 26.9938 107.117 26.2116C107.117 25.4228 107.269 24.7334 107.574 24.1435C107.879 23.5502 108.312 23.0895 108.872 22.7614C109.435 22.4299 110.103 22.2642 110.876 22.2642C111.648 22.2642 112.314 22.4299 112.874 22.7614C113.438 23.0895 113.872 23.5502 114.177 24.1435C114.482 24.7334 114.634 25.4228 114.634 26.2116C114.634 26.9938 114.482 27.6816 114.177 28.2749C113.872 28.8648 113.438 29.3255 112.874 29.657C112.314 29.9851 111.648 30.1491 110.876 30.1491ZM110.885 28.5085C111.237 28.5085 111.53 28.4091 111.765 28.2102C112.001 28.008 112.178 27.733 112.297 27.3849C112.42 27.0369 112.481 26.6409 112.481 26.1967C112.481 25.7526 112.42 25.3565 112.297 25.0085C112.178 24.6605 112.001 24.3854 111.765 24.1832C111.53 23.9811 111.237 23.88 110.885 23.88C110.531 23.88 110.233 23.9811 109.991 24.1832C109.752 24.3854 109.571 24.6605 109.449 25.0085C109.329 25.3565 109.27 25.7526 109.27 26.1967C109.27 26.6409 109.329 27.0369 109.449 27.3849C109.571 27.733 109.752 28.008 109.991 28.2102C110.233 28.4091 110.531 28.5085 110.885 28.5085ZM118.129 25.5852V30H116.011V22.3636H118.03V23.7109H118.119C118.288 23.2668 118.572 22.9155 118.969 22.657C119.367 22.3951 119.849 22.2642 120.416 22.2642C120.946 22.2642 121.409 22.3802 121.803 22.6122C122.198 22.8442 122.504 23.1757 122.723 23.6065C122.942 24.0341 123.051 24.5445 123.051 25.1378V30H120.933V25.5156C120.936 25.0483 120.817 24.6837 120.575 24.4219C120.333 24.1567 120 24.0241 119.576 24.0241C119.291 24.0241 119.039 24.0855 118.82 24.2081C118.605 24.3307 118.436 24.5097 118.313 24.745C118.194 24.977 118.132 25.2571 118.129 25.5852Z" fill="white"/>
</svg>
