<svg width="42" height="11" viewBox="0 0 42 11" fill="none" xmlns="http://www.w3.org/2000/svg">
<path d="M8.88 0.672V10.5H6.486V6.454H2.762V10.5H0.368V0.672H2.762V4.522H6.486V0.672H8.88ZM14.1642 10.612C13.3989 10.612 12.7082 10.4487 12.0922 10.122C11.4856 9.79533 11.0049 9.32867 10.6502 8.722C10.3049 8.11533 10.1322 7.406 10.1322 6.594C10.1322 5.79133 10.3096 5.08667 10.6642 4.48C11.0189 3.864 11.5042 3.39267 12.1202 3.066C12.7362 2.73933 13.4269 2.576 14.1922 2.576C14.9576 2.576 15.6482 2.73933 16.2642 3.066C16.8802 3.39267 17.3656 3.864 17.7202 4.48C18.0749 5.08667 18.2522 5.79133 18.2522 6.594C18.2522 7.39667 18.0702 8.106 17.7062 8.722C17.3516 9.32867 16.8616 9.79533 16.2362 10.122C15.6202 10.4487 14.9296 10.612 14.1642 10.612ZM14.1642 8.54C14.6216 8.54 15.0089 8.372 15.3262 8.036C15.6529 7.7 15.8162 7.21933 15.8162 6.594C15.8162 5.96867 15.6576 5.488 15.3402 5.152C15.0322 4.816 14.6496 4.648 14.1922 4.648C13.7256 4.648 13.3382 4.816 13.0302 5.152C12.7222 5.47867 12.5682 5.95933 12.5682 6.594C12.5682 7.21933 12.7176 7.7 13.0162 8.036C13.3242 8.372 13.7069 8.54 14.1642 8.54ZM29.4903 2.604C30.461 2.604 31.231 2.898 31.8003 3.486C32.379 4.074 32.6683 4.89067 32.6683 5.936V10.5H30.2883V6.258C30.2883 5.754 30.153 5.36667 29.8823 5.096C29.621 4.816 29.257 4.676 28.7903 4.676C28.3236 4.676 27.955 4.816 27.6843 5.096C27.423 5.36667 27.2923 5.754 27.2923 6.258V10.5H24.9123V6.258C24.9123 5.754 24.777 5.36667 24.5063 5.096C24.245 4.816 23.881 4.676 23.4143 4.676C22.9476 4.676 22.579 4.816 22.3083 5.096C22.047 5.36667 21.9163 5.754 21.9163 6.258V10.5H19.5223V2.688H21.9163V3.668C22.159 3.34133 22.4763 3.08467 22.8683 2.898C23.2603 2.702 23.7036 2.604 24.1983 2.604C24.7863 2.604 25.309 2.73 25.7663 2.982C26.233 3.234 26.597 3.59333 26.8583 4.06C27.129 3.63067 27.4976 3.28067 27.9643 3.01C28.431 2.73933 28.9396 2.604 29.4903 2.604ZM41.7066 6.468C41.7066 6.692 41.6926 6.92533 41.6646 7.168H36.2466C36.2839 7.65333 36.4379 8.02667 36.7086 8.288C36.9886 8.54 37.3293 8.666 37.7306 8.666C38.3279 8.666 38.7433 8.414 38.9766 7.91H41.5246C41.3939 8.42333 41.1559 8.88533 40.8106 9.296C40.4746 9.70667 40.0499 10.0287 39.5366 10.262C39.0233 10.4953 38.4493 10.612 37.8146 10.612C37.0493 10.612 36.3679 10.4487 35.7706 10.122C35.1733 9.79533 34.7066 9.32867 34.3706 8.722C34.0346 8.11533 33.8666 7.406 33.8666 6.594C33.8666 5.782 34.0299 5.07267 34.3566 4.466C34.6926 3.85933 35.1593 3.39267 35.7566 3.066C36.3539 2.73933 37.0399 2.576 37.8146 2.576C38.5706 2.576 39.2426 2.73467 39.8306 3.052C40.4186 3.36933 40.8759 3.822 41.2026 4.41C41.5386 4.998 41.7066 5.684 41.7066 6.468ZM39.2566 5.838C39.2566 5.42733 39.1166 5.10067 38.8366 4.858C38.5566 4.61533 38.2066 4.494 37.7866 4.494C37.3853 4.494 37.0446 4.61067 36.7646 4.844C36.4939 5.07733 36.3259 5.40867 36.2606 5.838H39.2566Z" fill="#FF994F"/>
</svg>
